<?xml version="1.0" encoding="UTF-8" standalone="no"?> <!-- Created with Vectornator for iOS (http://vectornator.io/) --><!DOCTYPE svg PUBLIC "-//W3C//DTD SVG 1.1//EN" "http://www.w3.org/Graphics/SVG/1.1/DTD/svg11.dtd">
<svg style="fill-rule:evenodd;clip-rule:evenodd;stroke-linecap:round;stroke-linejoin:round;" xmlns:vectornator="http://vectornator.io" xmlns:xlink="http://www.w3.org/1999/xlink" xmlns="http://www.w3.org/2000/svg" xml:space="preserve" version="1.1" viewBox="0 0 140 140">
<metadata>
<vectornator:setting key="DimensionsVisible" value="1"/>
<vectornator:setting key="SnapToGrid" value="0"/>
<vectornator:setting key="SnapToPoints" value="0"/>
<vectornator:setting key="GuidesVisible" value="1"/>
<vectornator:setting key="RulersVisible" value="1"/>
<vectornator:setting key="CMYKEnabledKey" value="0"/>
<vectornator:setting key="SnapToEdges" value="0"/>
<vectornator:setting key="DisplayWhiteBackground" value="1"/>
<vectornator:setting key="SnapToGuides" value="1"/>
<vectornator:setting key="GridSpacing" value="36"/>
<vectornator:setting key="Units" value="Pixels"/>
<vectornator:setting key="DynamicGuides" value="1"/>
<vectornator:setting key="New" value="1"/>
</metadata>
<defs/>
<g id="Capa 1" vectornator:layerName="Capa 1">
<path d="M27.7689+75.9863C26.3244+75.9864+25.1526+76.298+25.1526+76.6591L25.1526+80.322L25.1526+86.377C25.1526+86.377+26.2175+131.304+49.5969+131.304C61.1745+131.304+61.1672+131.261+67.0144+131.229C72.8616+131.261+72.7921+131.304+84.3572+131.304C94.1432+131.304+99.8942+123.338+103.419+114.185C105.025+113.891+106.722+113.664+108.204+112.84C110.986+111.292+113.112+110.101+114.483+109.326C114.949+109.142+115.311+108.805+115.754+108.579C115.794+108.556+116.352+108.28+116.352+108.28L116.202+108.28C121.084+105.568+124.575+100.562+124.575+94.5251C124.575+88.0687+120.751+82.537+115.305+80.023L115.156+79.9482C114.959+79.8599+114.759+79.8042+114.558+79.7239L106.335+76.4348L105.662+76.4348C105.204+76.2454+104.893+75.9863+103.943+75.9863L27.7689+75.9863ZM108.802+84.8072C114.11+84.8072+118.37+89.1492+118.37+94.5251C118.37+99.901+114.11+104.243+108.802+104.243C107.992+104.243+107.235+103.986+106.484+103.795C108.481+94.5016+108.802+86.377+108.802+86.377L108.802+84.8072Z" opacity="1" fill="#2a2a2a"/>
<path d="M103.335+76.0018C103.335+76.0018+105.17+75.8727+106.83+76.6404C108.49+77.408+107.971+79.579+107.971+79.579L102.862+79.0874L102.489+77.8607L102.489+76.523L103.335+76.0018Z" opacity="1" fill="#2a2a2a"/>
<path d="M69.9529+9.40236C69.9529+9.40236+49.3299+21.0943+54.721+36.4541C60.1121+51.814+62.0235+55.4693+58.3349+60.5532C54.6462+65.6371+53.3284+66.473+53.3284+66.473C53.3284+66.473+58.5447+56.4502+53.9364+48.818C49.3281+41.1859+42.676+30.3686+44.1757+21.5663C45.6755+12.764+71.9697+6.53433+69.9529+9.40236Z" opacity="1" fill="#4361ee"/>
<path d="M91.3213+16.0851C91.3213+16.0851+70.6983+27.777+76.0894+43.1368C81.4805+58.4967+83.3919+62.152+79.7033+67.2359C76.0146+72.3198+74.6968+73.1557+74.6968+73.1557C74.6968+73.1557+79.9131+63.1329+75.3048+55.5007C70.6965+47.8686+64.0444+37.0513+65.5441+28.249C67.0439+19.4467+93.3382+13.217+91.3213+16.0851Z" opacity="1" fill="#06bee1"/>
</g>
</svg>
